<mxfile host="app.diagrams.net" modified="2024-04-23T20:17:40.559Z" agent="Mozilla/5.0 (X11; Linux x86_64) AppleWebKit/537.36 (KHTML, like Gecko) Chrome/117.0.0.0 Safari/537.36" etag="SnIJv-YWcJ9UFmeMDHwM" version="24.2.8" type="device">
  <diagram id="C5RBs43oDa-KdzZeNtuy" name="Page-1">
    <mxGraphModel dx="1434" dy="1940" grid="1" gridSize="10" guides="1" tooltips="1" connect="1" arrows="1" fold="1" page="1" pageScale="1" pageWidth="827" pageHeight="1169" math="0" shadow="0">
      <root>
        <mxCell id="WIyWlLk6GJQsqaUBKTNV-0" />
        <mxCell id="WIyWlLk6GJQsqaUBKTNV-1" parent="WIyWlLk6GJQsqaUBKTNV-0" />
        <mxCell id="WbxKWistO83rXdN1k2Vi-13" style="edgeStyle=orthogonalEdgeStyle;rounded=0;orthogonalLoop=1;jettySize=auto;html=1;exitX=0.5;exitY=1;exitDx=0;exitDy=0;entryX=0.5;entryY=0;entryDx=0;entryDy=0;" parent="WIyWlLk6GJQsqaUBKTNV-1" edge="1">
          <mxGeometry relative="1" as="geometry">
            <mxPoint x="550" y="-290" as="sourcePoint" />
            <mxPoint x="540" y="-240" as="targetPoint" />
          </mxGeometry>
        </mxCell>
        <mxCell id="WIyWlLk6GJQsqaUBKTNV-3" value="Inicio" style="rounded=1;whiteSpace=wrap;html=1;fontSize=12;glass=0;strokeWidth=1;shadow=0;" parent="WIyWlLk6GJQsqaUBKTNV-1" vertex="1">
          <mxGeometry x="450" y="-330" width="200" height="40" as="geometry" />
        </mxCell>
        <mxCell id="WbxKWistO83rXdN1k2Vi-14" style="edgeStyle=orthogonalEdgeStyle;rounded=0;orthogonalLoop=1;jettySize=auto;html=1;exitX=0.5;exitY=1;exitDx=0;exitDy=0;entryX=0.5;entryY=0;entryDx=0;entryDy=0;" parent="WIyWlLk6GJQsqaUBKTNV-1" source="WbxKWistO83rXdN1k2Vi-0" target="WbxKWistO83rXdN1k2Vi-8" edge="1">
          <mxGeometry relative="1" as="geometry" />
        </mxCell>
        <mxCell id="WbxKWistO83rXdN1k2Vi-0" value="Selección tipo documento" style="shape=parallelogram;perimeter=parallelogramPerimeter;whiteSpace=wrap;html=1;fixedSize=1;" parent="WIyWlLk6GJQsqaUBKTNV-1" vertex="1">
          <mxGeometry x="440" y="-240" width="200" height="60" as="geometry" />
        </mxCell>
        <mxCell id="WbxKWistO83rXdN1k2Vi-5" value="Misericordia DB" style="strokeWidth=2;html=1;shape=mxgraph.flowchart.database;whiteSpace=wrap;" parent="WIyWlLk6GJQsqaUBKTNV-1" vertex="1">
          <mxGeometry x="750" y="80" width="110" height="80" as="geometry" />
        </mxCell>
        <mxCell id="WbxKWistO83rXdN1k2Vi-19" style="edgeStyle=orthogonalEdgeStyle;rounded=0;orthogonalLoop=1;jettySize=auto;html=1;exitX=0.5;exitY=1;exitDx=0;exitDy=0;exitPerimeter=0;entryX=0.5;entryY=0;entryDx=0;entryDy=0;" parent="WIyWlLk6GJQsqaUBKTNV-1" source="WbxKWistO83rXdN1k2Vi-7" target="WbxKWistO83rXdN1k2Vi-18" edge="1">
          <mxGeometry relative="1" as="geometry" />
        </mxCell>
        <mxCell id="WbxKWistO83rXdN1k2Vi-7" value="TURNOS" style="strokeWidth=2;html=1;shape=mxgraph.flowchart.display;whiteSpace=wrap;" parent="WIyWlLk6GJQsqaUBKTNV-1" vertex="1">
          <mxGeometry x="420" y="280" width="200" height="60" as="geometry" />
        </mxCell>
        <mxCell id="WbxKWistO83rXdN1k2Vi-8" value="Número Documento" style="html=1;strokeWidth=2;shape=manualInput;whiteSpace=wrap;rounded=1;size=26;arcSize=11;" parent="WIyWlLk6GJQsqaUBKTNV-1" vertex="1">
          <mxGeometry x="445" y="-140" width="195" height="70" as="geometry" />
        </mxCell>
        <mxCell id="5WVpOqwNi565ayzKRjHE-14" style="edgeStyle=orthogonalEdgeStyle;rounded=0;orthogonalLoop=1;jettySize=auto;html=1;entryX=0;entryY=0.5;entryDx=0;entryDy=0;" parent="WIyWlLk6GJQsqaUBKTNV-1" source="WbxKWistO83rXdN1k2Vi-9" target="WIyWlLk6GJQsqaUBKTNV-3" edge="1">
          <mxGeometry relative="1" as="geometry">
            <Array as="points">
              <mxPoint x="320" y="50" />
              <mxPoint x="320" y="-310" />
            </Array>
          </mxGeometry>
        </mxCell>
        <mxCell id="WbxKWistO83rXdN1k2Vi-9" value="&lt;ol style=&quot;font-size: 14px;&quot;&gt;&lt;li&gt;Solicitud de citas&lt;/li&gt;&lt;li&gt;Pago de facturas&lt;/li&gt;&lt;li&gt;Autorización de medicamentos&lt;/li&gt;&lt;li&gt;Información general&lt;/li&gt;&lt;li&gt;Volver&lt;/li&gt;&lt;/ol&gt;" style="rounded=1;whiteSpace=wrap;html=1;absoluteArcSize=1;arcSize=14;strokeWidth=2;align=left;" parent="WIyWlLk6GJQsqaUBKTNV-1" vertex="1">
          <mxGeometry x="420" y="-10" width="260" height="120" as="geometry" />
        </mxCell>
        <mxCell id="WbxKWistO83rXdN1k2Vi-15" style="edgeStyle=orthogonalEdgeStyle;rounded=0;orthogonalLoop=1;jettySize=auto;html=1;exitX=0.5;exitY=1;exitDx=0;exitDy=0;entryX=0.477;entryY=-0.017;entryDx=0;entryDy=0;entryPerimeter=0;" parent="WIyWlLk6GJQsqaUBKTNV-1" source="WbxKWistO83rXdN1k2Vi-8" target="WbxKWistO83rXdN1k2Vi-9" edge="1">
          <mxGeometry relative="1" as="geometry" />
        </mxCell>
        <mxCell id="WbxKWistO83rXdN1k2Vi-16" style="edgeStyle=orthogonalEdgeStyle;rounded=0;orthogonalLoop=1;jettySize=auto;html=1;exitX=1;exitY=0.5;exitDx=0;exitDy=0;entryX=0;entryY=0.5;entryDx=0;entryDy=0;entryPerimeter=0;" parent="WIyWlLk6GJQsqaUBKTNV-1" source="WbxKWistO83rXdN1k2Vi-9" target="WbxKWistO83rXdN1k2Vi-5" edge="1">
          <mxGeometry relative="1" as="geometry" />
        </mxCell>
        <mxCell id="WbxKWistO83rXdN1k2Vi-17" style="edgeStyle=orthogonalEdgeStyle;rounded=0;orthogonalLoop=1;jettySize=auto;html=1;exitX=0.5;exitY=1;exitDx=0;exitDy=0;exitPerimeter=0;entryX=0.532;entryY=0.017;entryDx=0;entryDy=0;entryPerimeter=0;" parent="WIyWlLk6GJQsqaUBKTNV-1" source="WbxKWistO83rXdN1k2Vi-5" target="WbxKWistO83rXdN1k2Vi-20" edge="1">
          <mxGeometry relative="1" as="geometry" />
        </mxCell>
        <mxCell id="WbxKWistO83rXdN1k2Vi-18" value="FIN" style="rounded=1;whiteSpace=wrap;html=1;fontSize=12;glass=0;strokeWidth=1;shadow=0;" parent="WIyWlLk6GJQsqaUBKTNV-1" vertex="1">
          <mxGeometry x="422.5" y="380" width="200" height="40" as="geometry" />
        </mxCell>
        <mxCell id="WbxKWistO83rXdN1k2Vi-21" style="edgeStyle=orthogonalEdgeStyle;rounded=0;orthogonalLoop=1;jettySize=auto;html=1;" parent="WIyWlLk6GJQsqaUBKTNV-1" source="WbxKWistO83rXdN1k2Vi-20" target="WbxKWistO83rXdN1k2Vi-7" edge="1">
          <mxGeometry relative="1" as="geometry" />
        </mxCell>
        <mxCell id="WbxKWistO83rXdN1k2Vi-20" value="Creación de Turno" style="rounded=1;whiteSpace=wrap;html=1;absoluteArcSize=1;arcSize=14;strokeWidth=2;" parent="WIyWlLk6GJQsqaUBKTNV-1" vertex="1">
          <mxGeometry x="400" y="190" width="250" height="50" as="geometry" />
        </mxCell>
        <mxCell id="WbxKWistO83rXdN1k2Vi-23" value="Inicio" style="rounded=1;whiteSpace=wrap;html=1;fontSize=12;glass=0;strokeWidth=1;shadow=0;" parent="WIyWlLk6GJQsqaUBKTNV-1" vertex="1">
          <mxGeometry x="1041" y="-580" width="200" height="40" as="geometry" />
        </mxCell>
        <mxCell id="WbxKWistO83rXdN1k2Vi-24" style="edgeStyle=orthogonalEdgeStyle;rounded=0;orthogonalLoop=1;jettySize=auto;html=1;exitX=0.5;exitY=1;exitDx=0;exitDy=0;entryX=0.5;entryY=0;entryDx=0;entryDy=0;" parent="WIyWlLk6GJQsqaUBKTNV-1" source="WbxKWistO83rXdN1k2Vi-25" target="WbxKWistO83rXdN1k2Vi-30" edge="1">
          <mxGeometry relative="1" as="geometry">
            <mxPoint x="1142.5" y="-150" as="targetPoint" />
          </mxGeometry>
        </mxCell>
        <mxCell id="WbxKWistO83rXdN1k2Vi-25" value="Selección de Turno" style="shape=parallelogram;perimeter=parallelogramPerimeter;whiteSpace=wrap;html=1;fixedSize=1;" parent="WIyWlLk6GJQsqaUBKTNV-1" vertex="1">
          <mxGeometry x="1050" y="-270" width="200" height="60" as="geometry" />
        </mxCell>
        <mxCell id="WbxKWistO83rXdN1k2Vi-26" value="Misericordia DB" style="strokeWidth=2;html=1;shape=mxgraph.flowchart.database;whiteSpace=wrap;" parent="WIyWlLk6GJQsqaUBKTNV-1" vertex="1">
          <mxGeometry x="1330" y="-30" width="110" height="80" as="geometry" />
        </mxCell>
        <mxCell id="WbxKWistO83rXdN1k2Vi-30" value="&lt;ol style=&quot;font-size: 14px;&quot;&gt;&lt;li&gt;Solicitud de citas&lt;/li&gt;&lt;li&gt;Pago de facturas&lt;/li&gt;&lt;li&gt;Autorización de medicamentos&lt;/li&gt;&lt;li&gt;Información general&lt;/li&gt;&lt;li&gt;siguiente turno&lt;/li&gt;&lt;/ol&gt;" style="rounded=1;whiteSpace=wrap;html=1;absoluteArcSize=1;arcSize=14;strokeWidth=2;align=left;" parent="WIyWlLk6GJQsqaUBKTNV-1" vertex="1">
          <mxGeometry x="1020" y="-130" width="260" height="120" as="geometry" />
        </mxCell>
        <mxCell id="WbxKWistO83rXdN1k2Vi-33" style="edgeStyle=orthogonalEdgeStyle;rounded=0;orthogonalLoop=1;jettySize=auto;html=1;exitX=0.5;exitY=1;exitDx=0;exitDy=0;exitPerimeter=0;entryX=0.532;entryY=0.017;entryDx=0;entryDy=0;entryPerimeter=0;" parent="WIyWlLk6GJQsqaUBKTNV-1" source="WbxKWistO83rXdN1k2Vi-26" edge="1">
          <mxGeometry relative="1" as="geometry">
            <mxPoint x="1153" y="110.84999999999991" as="targetPoint" />
          </mxGeometry>
        </mxCell>
        <mxCell id="WbxKWistO83rXdN1k2Vi-34" value="FIN" style="rounded=1;whiteSpace=wrap;html=1;fontSize=12;glass=0;strokeWidth=1;shadow=0;" parent="WIyWlLk6GJQsqaUBKTNV-1" vertex="1">
          <mxGeometry x="1055" y="390" width="200" height="40" as="geometry" />
        </mxCell>
        <mxCell id="WbxKWistO83rXdN1k2Vi-44" style="edgeStyle=orthogonalEdgeStyle;rounded=0;orthogonalLoop=1;jettySize=auto;html=1;entryX=0.5;entryY=0;entryDx=0;entryDy=0;" parent="WIyWlLk6GJQsqaUBKTNV-1" source="WbxKWistO83rXdN1k2Vi-37" target="WbxKWistO83rXdN1k2Vi-34" edge="1">
          <mxGeometry relative="1" as="geometry" />
        </mxCell>
        <mxCell id="WbxKWistO83rXdN1k2Vi-37" value="TURNOS" style="strokeWidth=2;html=1;shape=mxgraph.flowchart.display;whiteSpace=wrap;" parent="WIyWlLk6GJQsqaUBKTNV-1" vertex="1">
          <mxGeometry x="1055" y="280" width="200" height="60" as="geometry" />
        </mxCell>
        <mxCell id="WbxKWistO83rXdN1k2Vi-42" style="edgeStyle=orthogonalEdgeStyle;rounded=0;orthogonalLoop=1;jettySize=auto;html=1;entryX=0.5;entryY=0;entryDx=0;entryDy=0;" parent="WIyWlLk6GJQsqaUBKTNV-1" source="WbxKWistO83rXdN1k2Vi-38" target="WbxKWistO83rXdN1k2Vi-41" edge="1">
          <mxGeometry relative="1" as="geometry" />
        </mxCell>
        <mxCell id="WbxKWistO83rXdN1k2Vi-38" value="Turno Inactivo" style="rounded=1;whiteSpace=wrap;html=1;absoluteArcSize=1;arcSize=14;strokeWidth=2;" parent="WIyWlLk6GJQsqaUBKTNV-1" vertex="1">
          <mxGeometry x="1030" y="110" width="250" height="50" as="geometry" />
        </mxCell>
        <mxCell id="WbxKWistO83rXdN1k2Vi-43" style="edgeStyle=orthogonalEdgeStyle;rounded=0;orthogonalLoop=1;jettySize=auto;html=1;" parent="WIyWlLk6GJQsqaUBKTNV-1" source="WbxKWistO83rXdN1k2Vi-41" target="WbxKWistO83rXdN1k2Vi-37" edge="1">
          <mxGeometry relative="1" as="geometry" />
        </mxCell>
        <mxCell id="WbxKWistO83rXdN1k2Vi-41" value="Siguiente Turno" style="rounded=1;whiteSpace=wrap;html=1;absoluteArcSize=1;arcSize=14;strokeWidth=2;" parent="WIyWlLk6GJQsqaUBKTNV-1" vertex="1">
          <mxGeometry x="1030" y="200" width="250" height="50" as="geometry" />
        </mxCell>
        <mxCell id="WbxKWistO83rXdN1k2Vi-45" value="ASIGNACION DE TURNO" style="text;html=1;align=center;verticalAlign=middle;whiteSpace=wrap;rounded=0;" parent="WIyWlLk6GJQsqaUBKTNV-1" vertex="1">
          <mxGeometry x="472.5" y="-400" width="140" height="50" as="geometry" />
        </mxCell>
        <mxCell id="WbxKWistO83rXdN1k2Vi-46" value="RECEPCIÓN DE TURNO" style="text;html=1;align=center;verticalAlign=middle;whiteSpace=wrap;rounded=0;" parent="WIyWlLk6GJQsqaUBKTNV-1" vertex="1">
          <mxGeometry x="1080" y="-630" width="140" height="50" as="geometry" />
        </mxCell>
        <mxCell id="WbxKWistO83rXdN1k2Vi-47" value="" style="endArrow=none;dashed=1;html=1;dashPattern=1 3;strokeWidth=2;rounded=0;" parent="WIyWlLk6GJQsqaUBKTNV-1" edge="1">
          <mxGeometry width="50" height="50" relative="1" as="geometry">
            <mxPoint x="920" y="472" as="sourcePoint" />
            <mxPoint x="920" y="-400" as="targetPoint" />
          </mxGeometry>
        </mxCell>
        <mxCell id="5WVpOqwNi565ayzKRjHE-5" style="edgeStyle=orthogonalEdgeStyle;rounded=0;orthogonalLoop=1;jettySize=auto;html=1;entryX=0;entryY=0.75;entryDx=0;entryDy=0;" parent="WIyWlLk6GJQsqaUBKTNV-1" source="5WVpOqwNi565ayzKRjHE-1" target="5WVpOqwNi565ayzKRjHE-2" edge="1">
          <mxGeometry relative="1" as="geometry" />
        </mxCell>
        <mxCell id="5WVpOqwNi565ayzKRjHE-1" value="INGRESO" style="strokeWidth=2;html=1;shape=mxgraph.flowchart.display;whiteSpace=wrap;" parent="WIyWlLk6GJQsqaUBKTNV-1" vertex="1">
          <mxGeometry x="1040" y="-510" width="200" height="60" as="geometry" />
        </mxCell>
        <mxCell id="5WVpOqwNi565ayzKRjHE-2" value="CÓDIGO&lt;br&gt;RECEPCIONISTA" style="html=1;strokeWidth=2;shape=manualInput;whiteSpace=wrap;rounded=1;size=26;arcSize=11;" parent="WIyWlLk6GJQsqaUBKTNV-1" vertex="1">
          <mxGeometry x="1300" y="-540" width="195" height="70" as="geometry" />
        </mxCell>
        <mxCell id="5WVpOqwNi565ayzKRjHE-3" value="PASSWORD" style="html=1;strokeWidth=2;shape=manualInput;whiteSpace=wrap;rounded=1;size=26;arcSize=11;" parent="WIyWlLk6GJQsqaUBKTNV-1" vertex="1">
          <mxGeometry x="1300" y="-450" width="195" height="70" as="geometry" />
        </mxCell>
        <mxCell id="5WVpOqwNi565ayzKRjHE-6" style="edgeStyle=orthogonalEdgeStyle;rounded=0;orthogonalLoop=1;jettySize=auto;html=1;exitX=0.5;exitY=1;exitDx=0;exitDy=0;entryX=0.497;entryY=0.171;entryDx=0;entryDy=0;entryPerimeter=0;" parent="WIyWlLk6GJQsqaUBKTNV-1" source="5WVpOqwNi565ayzKRjHE-2" target="5WVpOqwNi565ayzKRjHE-3" edge="1">
          <mxGeometry relative="1" as="geometry" />
        </mxCell>
        <mxCell id="5WVpOqwNi565ayzKRjHE-8" style="edgeStyle=orthogonalEdgeStyle;rounded=0;orthogonalLoop=1;jettySize=auto;html=1;entryX=0;entryY=0.5;entryDx=0;entryDy=0;exitX=0;exitY=0.5;exitDx=0;exitDy=0;exitPerimeter=0;" parent="WIyWlLk6GJQsqaUBKTNV-1" source="5WVpOqwNi565ayzKRjHE-7" target="WbxKWistO83rXdN1k2Vi-23" edge="1">
          <mxGeometry relative="1" as="geometry">
            <Array as="points">
              <mxPoint x="990" y="-390" />
              <mxPoint x="990" y="-560" />
            </Array>
          </mxGeometry>
        </mxCell>
        <mxCell id="5WVpOqwNi565ayzKRjHE-9" style="edgeStyle=orthogonalEdgeStyle;rounded=0;orthogonalLoop=1;jettySize=auto;html=1;entryX=0.5;entryY=0;entryDx=0;entryDy=0;" parent="WIyWlLk6GJQsqaUBKTNV-1" source="5WVpOqwNi565ayzKRjHE-7" target="WbxKWistO83rXdN1k2Vi-25" edge="1">
          <mxGeometry relative="1" as="geometry">
            <mxPoint x="1150" y="-310" as="targetPoint" />
          </mxGeometry>
        </mxCell>
        <mxCell id="5WVpOqwNi565ayzKRjHE-7" value="VALIDO?" style="strokeWidth=2;html=1;shape=mxgraph.flowchart.decision;whiteSpace=wrap;" parent="WIyWlLk6GJQsqaUBKTNV-1" vertex="1">
          <mxGeometry x="1100" y="-430" width="100" height="80" as="geometry" />
        </mxCell>
        <mxCell id="5WVpOqwNi565ayzKRjHE-10" style="edgeStyle=orthogonalEdgeStyle;rounded=0;orthogonalLoop=1;jettySize=auto;html=1;entryX=1;entryY=0.5;entryDx=0;entryDy=0;entryPerimeter=0;" parent="WIyWlLk6GJQsqaUBKTNV-1" source="5WVpOqwNi565ayzKRjHE-3" target="5WVpOqwNi565ayzKRjHE-7" edge="1">
          <mxGeometry relative="1" as="geometry" />
        </mxCell>
        <mxCell id="5WVpOqwNi565ayzKRjHE-11" value="NO" style="text;html=1;align=center;verticalAlign=middle;whiteSpace=wrap;rounded=0;" parent="WIyWlLk6GJQsqaUBKTNV-1" vertex="1">
          <mxGeometry x="1010" y="-430" width="60" height="30" as="geometry" />
        </mxCell>
        <mxCell id="5WVpOqwNi565ayzKRjHE-12" value="si" style="text;html=1;align=center;verticalAlign=middle;whiteSpace=wrap;rounded=0;" parent="WIyWlLk6GJQsqaUBKTNV-1" vertex="1">
          <mxGeometry x="1140" y="-350" width="60" height="30" as="geometry" />
        </mxCell>
        <mxCell id="5WVpOqwNi565ayzKRjHE-13" style="edgeStyle=orthogonalEdgeStyle;rounded=0;orthogonalLoop=1;jettySize=auto;html=1;entryX=0.5;entryY=0;entryDx=0;entryDy=0;entryPerimeter=0;" parent="WIyWlLk6GJQsqaUBKTNV-1" source="WbxKWistO83rXdN1k2Vi-23" target="5WVpOqwNi565ayzKRjHE-1" edge="1">
          <mxGeometry relative="1" as="geometry" />
        </mxCell>
        <mxCell id="5WVpOqwNi565ayzKRjHE-15" value="OPCIÓN&lt;br&gt;5" style="text;html=1;align=center;verticalAlign=middle;whiteSpace=wrap;rounded=0;" parent="WIyWlLk6GJQsqaUBKTNV-1" vertex="1">
          <mxGeometry x="330" y="-160" width="60" height="30" as="geometry" />
        </mxCell>
        <mxCell id="kC-4jgXgTE3xURu9FE7C-0" style="edgeStyle=orthogonalEdgeStyle;rounded=0;orthogonalLoop=1;jettySize=auto;html=1;entryX=0.5;entryY=0;entryDx=0;entryDy=0;entryPerimeter=0;" edge="1" parent="WIyWlLk6GJQsqaUBKTNV-1" source="WbxKWistO83rXdN1k2Vi-30" target="WbxKWistO83rXdN1k2Vi-26">
          <mxGeometry relative="1" as="geometry" />
        </mxCell>
        <mxCell id="kC-4jgXgTE3xURu9FE7C-1" value="" style="endArrow=none;dashed=1;html=1;dashPattern=1 3;strokeWidth=2;rounded=0;" edge="1" parent="WIyWlLk6GJQsqaUBKTNV-1">
          <mxGeometry width="50" height="50" relative="1" as="geometry">
            <mxPoint x="1570" y="412" as="sourcePoint" />
            <mxPoint x="1570" y="-460" as="targetPoint" />
          </mxGeometry>
        </mxCell>
        <mxCell id="kC-4jgXgTE3xURu9FE7C-2" value="Inicio" style="rounded=1;whiteSpace=wrap;html=1;fontSize=12;glass=0;strokeWidth=1;shadow=0;" vertex="1" parent="WIyWlLk6GJQsqaUBKTNV-1">
          <mxGeometry x="1711" y="-580" width="200" height="40" as="geometry" />
        </mxCell>
        <mxCell id="kC-4jgXgTE3xURu9FE7C-4" value="DASHBOARD" style="text;html=1;align=center;verticalAlign=middle;whiteSpace=wrap;rounded=0;" vertex="1" parent="WIyWlLk6GJQsqaUBKTNV-1">
          <mxGeometry x="1750" y="-630" width="140" height="50" as="geometry" />
        </mxCell>
        <mxCell id="kC-4jgXgTE3xURu9FE7C-5" style="edgeStyle=orthogonalEdgeStyle;rounded=0;orthogonalLoop=1;jettySize=auto;html=1;entryX=0;entryY=0.75;entryDx=0;entryDy=0;" edge="1" parent="WIyWlLk6GJQsqaUBKTNV-1" source="kC-4jgXgTE3xURu9FE7C-6" target="kC-4jgXgTE3xURu9FE7C-7">
          <mxGeometry relative="1" as="geometry" />
        </mxCell>
        <mxCell id="kC-4jgXgTE3xURu9FE7C-6" value="INGRESO" style="strokeWidth=2;html=1;shape=mxgraph.flowchart.display;whiteSpace=wrap;" vertex="1" parent="WIyWlLk6GJQsqaUBKTNV-1">
          <mxGeometry x="1710" y="-510" width="200" height="60" as="geometry" />
        </mxCell>
        <mxCell id="kC-4jgXgTE3xURu9FE7C-7" value="CÓDIGO&lt;br&gt;RECEPCIONISTA" style="html=1;strokeWidth=2;shape=manualInput;whiteSpace=wrap;rounded=1;size=26;arcSize=11;" vertex="1" parent="WIyWlLk6GJQsqaUBKTNV-1">
          <mxGeometry x="1970" y="-540" width="195" height="70" as="geometry" />
        </mxCell>
        <mxCell id="kC-4jgXgTE3xURu9FE7C-8" value="PASSWORD" style="html=1;strokeWidth=2;shape=manualInput;whiteSpace=wrap;rounded=1;size=26;arcSize=11;" vertex="1" parent="WIyWlLk6GJQsqaUBKTNV-1">
          <mxGeometry x="1970" y="-450" width="195" height="70" as="geometry" />
        </mxCell>
        <mxCell id="kC-4jgXgTE3xURu9FE7C-9" style="edgeStyle=orthogonalEdgeStyle;rounded=0;orthogonalLoop=1;jettySize=auto;html=1;exitX=0.5;exitY=1;exitDx=0;exitDy=0;entryX=0.497;entryY=0.171;entryDx=0;entryDy=0;entryPerimeter=0;" edge="1" parent="WIyWlLk6GJQsqaUBKTNV-1" source="kC-4jgXgTE3xURu9FE7C-7" target="kC-4jgXgTE3xURu9FE7C-8">
          <mxGeometry relative="1" as="geometry" />
        </mxCell>
        <mxCell id="kC-4jgXgTE3xURu9FE7C-10" style="edgeStyle=orthogonalEdgeStyle;rounded=0;orthogonalLoop=1;jettySize=auto;html=1;entryX=0;entryY=0.5;entryDx=0;entryDy=0;exitX=0;exitY=0.5;exitDx=0;exitDy=0;exitPerimeter=0;" edge="1" parent="WIyWlLk6GJQsqaUBKTNV-1" source="kC-4jgXgTE3xURu9FE7C-12" target="kC-4jgXgTE3xURu9FE7C-2">
          <mxGeometry relative="1" as="geometry">
            <Array as="points">
              <mxPoint x="1660" y="-390" />
              <mxPoint x="1660" y="-560" />
            </Array>
          </mxGeometry>
        </mxCell>
        <mxCell id="kC-4jgXgTE3xURu9FE7C-11" style="edgeStyle=orthogonalEdgeStyle;rounded=0;orthogonalLoop=1;jettySize=auto;html=1;entryX=0.5;entryY=0;entryDx=0;entryDy=0;" edge="1" parent="WIyWlLk6GJQsqaUBKTNV-1" source="kC-4jgXgTE3xURu9FE7C-12">
          <mxGeometry relative="1" as="geometry">
            <mxPoint x="1820" y="-270" as="targetPoint" />
          </mxGeometry>
        </mxCell>
        <mxCell id="kC-4jgXgTE3xURu9FE7C-12" value="VALIDO?" style="strokeWidth=2;html=1;shape=mxgraph.flowchart.decision;whiteSpace=wrap;" vertex="1" parent="WIyWlLk6GJQsqaUBKTNV-1">
          <mxGeometry x="1770" y="-430" width="100" height="80" as="geometry" />
        </mxCell>
        <mxCell id="kC-4jgXgTE3xURu9FE7C-13" style="edgeStyle=orthogonalEdgeStyle;rounded=0;orthogonalLoop=1;jettySize=auto;html=1;entryX=1;entryY=0.5;entryDx=0;entryDy=0;entryPerimeter=0;" edge="1" parent="WIyWlLk6GJQsqaUBKTNV-1" source="kC-4jgXgTE3xURu9FE7C-8" target="kC-4jgXgTE3xURu9FE7C-12">
          <mxGeometry relative="1" as="geometry" />
        </mxCell>
        <mxCell id="kC-4jgXgTE3xURu9FE7C-14" value="NO" style="text;html=1;align=center;verticalAlign=middle;whiteSpace=wrap;rounded=0;" vertex="1" parent="WIyWlLk6GJQsqaUBKTNV-1">
          <mxGeometry x="1680" y="-430" width="60" height="30" as="geometry" />
        </mxCell>
        <mxCell id="kC-4jgXgTE3xURu9FE7C-15" value="si" style="text;html=1;align=center;verticalAlign=middle;whiteSpace=wrap;rounded=0;" vertex="1" parent="WIyWlLk6GJQsqaUBKTNV-1">
          <mxGeometry x="1810" y="-350" width="60" height="30" as="geometry" />
        </mxCell>
        <mxCell id="kC-4jgXgTE3xURu9FE7C-16" style="edgeStyle=orthogonalEdgeStyle;rounded=0;orthogonalLoop=1;jettySize=auto;html=1;entryX=0.5;entryY=0;entryDx=0;entryDy=0;entryPerimeter=0;" edge="1" parent="WIyWlLk6GJQsqaUBKTNV-1" source="kC-4jgXgTE3xURu9FE7C-2" target="kC-4jgXgTE3xURu9FE7C-6">
          <mxGeometry relative="1" as="geometry" />
        </mxCell>
        <mxCell id="kC-4jgXgTE3xURu9FE7C-17" value="Dashboard" style="strokeWidth=2;html=1;shape=mxgraph.flowchart.display;whiteSpace=wrap;" vertex="1" parent="WIyWlLk6GJQsqaUBKTNV-1">
          <mxGeometry x="1720" y="-270" width="200" height="60" as="geometry" />
        </mxCell>
      </root>
    </mxGraphModel>
  </diagram>
</mxfile>
